/* XPM */
static char *_51753100ff444da89bbffab2254afacDaEiZzKwicZggUyj[] = {
/* columns rows colors chars-per-pixel */
"60 60 117 2 ",
"   c None",
".  c black",
"X  c #171600",
"o  c #171700",
"O  c #1F1C00",
"+  c #1F1E00",
"@  c #A10A28",
"#  c #D9CB00",
"$  c #E0D300",
"%  c #E9D300",
"&  c #E8DB00",
"*  c #FFDA00",
"=  c #FFDB00",
"-  c #FADF00",
";  c #FFDE00",
":  c #EFE500",
">  c #EDE900",
",  c #EDEB00",
"<  c #F1E300",
"1  c #FFE400",
"2  c #FFE500",
"3  c #FFE700",
"4  c #F3EE00",
"5  c #F8EA00",
"6  c #FFE900",
"7  c #FCEB00",
"8  c #FFEA00",
"9  c #FFEB00",
"0  c #FBEE00",
"q  c #FFEC00",
"w  c #FFED00",
"e  c #FFEE00",
"r  c #FFEF00",
"t  c #FFE50B",
"y  c #FFED09",
"u  c #F3F000",
"i  c #F5F400",
"p  c #F5F500",
"a  c #FAF000",
"s  c #FFF000",
"d  c #FEF100",
"f  c #FFF100",
"g  c #FDF200",
"h  c #FEF200",
"j  c #FFF200",
"k  c #FFF300",
"l  c #F8F700",
"z  c #FAF700",
"x  c #FFF400",
"c  c #FFF500",
"v  c #FCF600",
"b  c #FEF600",
"n  c #FFF600",
"m  c #FFF700",
"M  c #FFF104",
"N  c #FFF307",
"B  c #FAF800",
"V  c #FCF800",
"C  c #FDF800",
"Z  c #FFF800",
"A  c #FEF900",
"S  c #FFF900",
"D  c #FCFB00",
"F  c #FFFA00",
"G  c #FEFB00",
"H  c #FFFB00",
"J  c #FFF802",
"K  c #FFF902",
"L  c #FCFC00",
"P  c #FDFC00",
"I  c #FFFC00",
"U  c #FFFD00",
"Y  c #FFFE00",
"T  c yellow",
"R  c #FFF208",
"E  c #FFE216",
"W  c #FFEE16",
"Q  c #FFDF31",
"!  c #FFE722",
"~  c #FFE828",
"^  c #FFE13A",
"/  c #FFE13F",
"(  c #129EF3",
")  c #139EF3",
"_  c #169DF3",
"`  c #149EF3",
"'  c #149DF4",
"]  c #199BF3",
"[  c #1B9AF3",
"{  c #2196F3",
"}  c #04A7F3",
"|  c #07A6F4",
" . c #06A6F5",
".. c #0CA3F3",
"X. c #0EA2F3",
"o. c #0FA2F3",
"O. c #08A5F3",
"+. c #09A5F3",
"@. c #0DA1F5",
"#. c #0DA2F4",
"$. c #0EA2F4",
"%. c #09A4F4",
"&. c #09A5F4",
"*. c #03A8F4",
"=. c #03A9F4",
"-. c #11A0F3",
";. c #12A0F3",
":. c #11A0F4",
">. c #5AC6F8",
",. c #E68383",
"<. c #A6E2FB",
"1. c gray83",
"2. c #EDC5C5",
"3. c #FFCDD2",
"4. c #CEEFFD",
"5. c #FFEBEE",
"6. c white",
/* pixels */
"                                                                                                                        ",
"                                                                                                                        ",
"                                                                                                                        ",
"                                                                                                                        ",
"                                                                                                                        ",
"                                                                                                                        ",
"                                                                                                                        ",
"                                                                                                                        ",
"                                                                                                                        ",
"                                                                                                                        ",
"                                                                                                                        ",
"                                                                                                                        ",
"                                                                                                                        ",
"                                              . . . . . . . . . . . . . . .                                             ",
"                                          . . p I I I I I I I I I I I I I I . .                                         ",
"                                        . I p u v I I I I I s s v I I I I I I I .                                       ",
"                                      . I I D v s v I I I I v 7 s I I I I D I I I .                                     ",
"                                    . I I I I s w s I I I I D v v I I I s w v I I I .                                   ",
"                                  . p D I I I v s D I I I D D I I I I D w 7 s I I I I .                                 ",
"                                O $ < z I I I I I I I B 0 w s D I I I I D v I I I D I I .                               ",
"                              O # % 7 D I I I . . . . > & - s I I . . . . I I I D v s v I .                             ",
"                            . B : 5 s D I I . 6.6.6.6.. > a I I . 6.6.6.6.. I I D w 7 w I I .                           ",
"                            . I I D I I I . 6.{ { 6.6.6.. I I . 6.6.6.6.6.6.. I I s s D I I .                           ",
"                          . I I I I I I . 6.{ [ [ [ 6.6.6.. . 6.6.{ { 6.6.6.6.. I I I I I I I .                         ",
"                          . I I I I I . 6.{ :._ X.{ 6.6.6.. 6.6.-.#.%.-.<.6.6.6.. I D s s D I .                         ",
"                          . I I I I I . 6.#.#.| 6._ 4.6.6.. 6.%.| *.*.6.-.6.6.6.. I D w 7 s I .                         ",
"                          . I D s s v . >.+.. . 6.X.{ 6.6.. 6.#.. . 6.6.-.6.6.6.. I D s s v I .                         ",
"                          . I D w 7 w . >.) . . . X.[ 6.6.. 6.' . . . } [ 6.6.6.. I I I D I I .                         ",
"                          . I I s s D . 6.{ . . . ..{ . . . . { . . . X.[ 6.6.. I I I I I I I .                         ",
"                          . I I I I I I . { #.) +.{ . I I I . . { ' _ X.[ 6.. I I I I D D I I .                         ",
"                          . I I I I I I I . { { { { . I I I I . . ' ] -.{ . I I I I I s 7 v I .                         ",
"                          . I I I I I I I I . . . . . I I I I I . . . . . I I I I I D 7 ; D I .                         ",
"                          . I v s v I I I I I I I I I . . I I I I . I I I I I I D R N w v I I .                         ",
"                          . I s w w I I I v s v I I I I I . I I I I I I I I I D W ~ ! y I I I .                         ",
"                          . I v s v I I I s w s I I I I I I I I I I I v v I I N 5./ 5.E I I I .                         ",
"                          . I I I I I I I 3.s 3.I I I v s v I I I I D s * . . . . ^ ^ t I I I .                         ",
"                          . I I I I I I I I I I I I I s w s I I . . . . . @ @ @ @ . 5.s D I I .                         ",
"                          . I I I I I I I 3.I I I I . . . . . . 6.6.@ @ @ @ @ @ @ . D s s D I .                         ",
"                          . I I D v s v I I D D I . @ 6.6.6.@ 6.6.1.@ @ @ @ @ @ . I D s * D I .                         ",
"                          . I I D s 2 v I D s w . @ @ 6.6.1.@ 6.6.1.@ @ @ @ @ @ . I I D D I I .                         ",
"                            . I I v v I I D w 7 . @ @ 6.1.1.@ 6.1.@ @ @ @ @ @ . I I D I I I .                           ",
"                            . I I I I I I I v s . @ @ @ @ @ @ @ @ @ @ @ @ . . I D s w s I I .                           ",
"                              . I I I I I D I I . @ @ @ ,.,.,.2.@ @ @ @ @ . I I D w 2 s I .                             ",
"                                . I I D v s v I I . @ 2.2.,.2.2.,.@ @ . . I I I I s s I .                               ",
"                                  . p 4 s 7 s I I I . . . . . . . . . s v I I I I I I .                                 ",
"                                    . p s s I I I D v s v I I I D v D I I I I I I I .                                   ",
"                                      . I I I I I D s w s I I D w 2 v I I I I I I .                                     ",
"                                        . I I I I I v s D I I v 7 ; D I I I I I .                                       ",
"                                          . . I I I I I I I I I v D I I I I . .                                         ",
"                                              . . . . . . . . o o . . . . .                                             ",
"                                                                                                                        ",
"                                                                                                                        ",
"                                                                                                                        ",
"                                                                                                                        ",
"                                                                                                                        ",
"                                                                                                                        ",
"                                                                                                                        ",
"                                                                                                                        ",
"                                                                                                                        ",
"                                                                                                                        "
};
