/* XPM */
static char *_8cc624039274f8687f4321884020d20Id86UjOfwdvdTIue[] = {
/* columns rows colors chars-per-pixel */
"60 60 175 2 ",
"   c None",
".  c #2B1600",
"X  c #2C1600",
"o  c #2D1600",
"O  c #2D1700",
"+  c #2E1700",
"@  c #2D1800",
"#  c #2F1800",
"$  c #301800",
"%  c #301900",
"&  c #311900",
"*  c #331A00",
"=  c #321B00",
"-  c #341A00",
";  c #351B00",
":  c #321C00",
">  c #361C00",
",  c #371D00",
"<  c #391A00",
"1  c #3D1E00",
"2  c #3C1F00",
"3  c #3E1E00",
"4  c #401F00",
"5  c #422000",
"6  c #412200",
"7  c #402300",
"8  c #432300",
"9  c #472100",
"0  c #472300",
"q  c #472500",
"w  c #4C2300",
"e  c #482400",
"r  c #492400",
"t  c #482500",
"y  c #4A2500",
"u  c #652F00",
"i  c #643000",
"p  c #673000",
"a  c #683000",
"s  c #693100",
"d  c #6A3100",
"f  c #6B3100",
"g  c #693200",
"h  c #6A3200",
"j  c #6B3300",
"k  c #6C3200",
"l  c #6C3300",
"z  c #6D3300",
"x  c #6E3300",
"c  c #6F3300",
"v  c #6B3500",
"b  c #6C3400",
"n  c #6D3400",
"m  c #6D3500",
"M  c #6E3400",
"N  c #6F3400",
"B  c #6E3500",
"V  c #6F3500",
"C  c #6C3600",
"Z  c #6D3600",
"A  c #6C3700",
"S  c #6D3700",
"D  c #6F3600",
"F  c #6E3700",
"G  c #6F3700",
"H  c #6E3601",
"J  c #703400",
"K  c #713400",
"L  c #703500",
"P  c #713500",
"I  c #723400",
"U  c #723500",
"Y  c #733500",
"T  c #703600",
"R  c #713600",
"E  c #723600",
"W  c #733600",
"Q  c #723700",
"!  c #733700",
"~  c #733701",
"^  c #743500",
"/  c #743600",
"(  c #753600",
")  c #743700",
"_  c #753700",
"`  c #743701",
"'  c #753701",
"]  c #763600",
"[  c #763700",
"{  c #773700",
"}  c #743702",
"|  c #783700",
" . c #733801",
".. c #733901",
"X. c #733802",
"o. c #733903",
"O. c #743800",
"+. c #753800",
"@. c #743801",
"#. c #753801",
"$. c #743901",
"%. c #753901",
"&. c #763800",
"*. c #773800",
"=. c #763900",
"-. c #773900",
";. c #763801",
":. c #763901",
">. c #763A00",
",. c #773A00",
"<. c #773B00",
"1. c #773A01",
"2. c #743903",
"3. c #753903",
"4. c #753A03",
"5. c #743A04",
"6. c #753B04",
"7. c #753B05",
"8. c #783800",
"9. c #793800",
"0. c #783900",
"q. c #793900",
"w. c #7A3800",
"e. c #7A3900",
"r. c #7B3900",
"t. c #793A00",
"y. c #793B00",
"u. c #783A01",
"i. c #793B01",
"p. c #7A3A00",
"a. c #7A3B00",
"s. c #7B3B01",
"d. c #783A03",
"f. c #7C3900",
"g. c #7C3A00",
"h. c #7C3B00",
"j. c #7A3C02",
"k. c #7B3E02",
"l. c #7B3E03",
"z. c #7D3D00",
"x. c #7F3E01",
"c. c #7C3E02",
"v. c #7F3E02",
"b. c #7B4103",
"n. c #7A4203",
"m. c #7C4003",
"M. c #803D00",
"N. c #813F00",
"B. c #833F00",
"V. c #834203",
"C. c #804104",
"Z. c #F1BA74",
"A. c #F2BC77",
"S. c #E5C584",
"D. c #E7CA8E",
"F. c #E9CD96",
"G. c #E9CF98",
"H. c #EBD19D",
"J. c #FBE68B",
"K. c #EDD8AC",
"L. c #EED8AE",
"P. c #EED9AE",
"I. c #F5D9A6",
"U. c #EEDBB2",
"Y. c #EFDDB7",
"T. c #F8DCB7",
"R. c #F1E0BB",
"E. c #F1E0BC",
"W. c #F4E7CC",
"Q. c #FDF5CC",
"!. c #F6EBD3",
"~. c #F8EFDD",
"^. c #FDF6D6",
"/. c #F8F0DE",
"(. c white",
/* pixels */
"                                                                                                                        ",
"                                                                                                                        ",
"                                                                                                                        ",
"                                                      D.          I.(.E.                                                ",
"                                                    U.          (.I.(.I.                                                ",
"                                                  H.!.~.Y.F.L.I.I.Q.I.I.                                                ",
"                                                    R.(.      ^.(.W.(./.                                                ",
"                                                      G.      I.(.L.  L.                                                ",
"                                                              T.                                                        ",
"                                                            Z.A.                                                        ",
"                                              . . . . . . . . . . . . . . . . .                                         ",
"                                          . 1 1 U U U U U U U U U U U U U U U U .                                       ",
"                                        1 ) U n n z z z U U ) ) ) ) ) ) ) ) ) ) ) .                                     ",
"                                      + ) U U U +.+.U U U ) ) ) ) ) ) ) ) ) ) ) ) ) .                                   ",
"                                    + ) U U U ) +.+.+.) ) ) ) ) ) ) ) ) ) ) ) ) ) ) ) .                                 ",
"                                  . U n U U ) ) ) ) ) ) ) ) ) ) ) ) ) ) ) ) ) +.+.p.) ) .                               ",
"                                . U U U ) ) ) ) ) ) ) ) ) ) ) ) ) ) ) ) ) ) ) +.p.p.+.) ) .                             ",
"                                + z U ) ) ) +.p.p.+.) ) +.+.+.) ) ) ) ) ) ) ) ) +.+.p.) U .                             ",
"                              . U n ) ) ) ) p.g.g.p.+.+.+.+.+.) ) U ) ) ) ) ) ) ) p.+.+.U U .                           ",
"                              + n U ) ) ) +.g.M.M.p.+.+.6.6.6.+.o.U U ) ) ) ) ) ) +.p.p.U U +                           ",
"                            . U z ) ) ) ) +.g.M.z.p.+.o.o.+.+.o.U U U ) ) ) ) ) ) +.+.+.U U U .                         ",
"                            . U U ) ) ) ) ) p.p.p.+.+.U o.+.+.U U U U ) ) ) ) ) ) ) +.+.U U U +                         ",
"                          . ) U U ) ) ) ) ) ) ) ) o.U U U U U U U U ) ) ) ) ) ) ) ) ) ) ) U U U .                       ",
"                          . U U U U ) U U U ) ) U U U U ) ) ) ) ) ) ) ) ) ) ) ) ) ) ) ) ) U U U +                       ",
"                        . ) n U U U U U U U U U U U ) ) ) ) ) ) ) ) ) ) ) ) ) ) ) ) ) ) ) +.) U U .                     ",
"                        . U U U U U U U U U U U U ) ) ) ) ) ) ) ) ) ) ) ) ) ) ) ) ) ) ) ) p.) U U .                     ",
"                        + z U U ) ) U U U U U U U ) ) ) ) ) ) ) ) ) ) ) ) ) ) ) ) ) ) ) ) ) +.U U .                     ",
"                        > d ) ) ) ) U U U U U U U ) ) ) ) ) ) ) ) ) ) ) ) ) ) ) ) ) ) ) +.+.+.n z #                     ",
"                        4 d ) p.+.) U U U U U U ) ) ) ) ) ) ) ) ) ) ) ) ) ) ) ) ) ) ) ) ) ) ) n p *                     ",
"                        9 z p.g.+.) U U U U U ) ) ) ) ) ) ) ) ) ) ) ) ) ) ) ) ) ) ) ) ) ) ) ) z p *                     ",
"                        w d | p.+.) U U U U U ) ) ) ) ) ) ) ) ) ) ) ) ) ) ) ) ) ) ) ) ) ) ) ) n u :                     ",
"                      * d n ) +.) ) U U U U U ) ) ) ) ) ) ) ) ) ) ) ) ) ) ) ) ) ) ) ) ) ) ) p.U d -                     ",
"                      * d n U ) ) ) U U U U U ) ) ) ) ) ) ) ) ) ) ) ) ) ) ) ) ) ) ) ) ) ) ) ) ) n U .                   ",
"                      + z n ) ) ) U U U U U ) ) ) ) ) ) ) ) ) ) ) ) ) ) ) ) ) ) ) ) ) ) ) ) ) ) U ) .                   ",
"                      . U U ) ) ) U U U U U ) ) ) ) ) ) ) ) ) ) ) ) ) ) ) ) ) ) ) ) ) ) ) ) ) +.) ) .                   ",
"                      . U n ) U U U U U U U U ) ) ) ) ) ) ) ) ) ) ) ) ) ) ) ) ) ) ) ) ) ) ) ) p.+.) .                   ",
"                      + z U U U ) ) ) ) ) ) ) ) ) U U ) ) ) ) ) ) ) ) ) ) ) ) ) ) ) ) ) ) ) ) ) ) ) .                   ",
"                    . U n U U U ) ) ) ) ) ) ) ) U U U U U ) ) ) ) ) U U ) ) ) +.+.+.+.) ) ) ) U ) ) ) .                 ",
"              . . . + n n U U U ) ) ) ) ) ) ) ) U U U U U U ) ) ) U U U +.+.+.+.+.+.) ) ) ) ) ) ) ) ) . . .             ",
"            . J.J.S.+ n U U U U ) ) ) ) ) ) ) ) U U U U U U U ) U U U U o.+.) +.+.) ) ) ) ) ) ) ) ) ) . S.J..           ",
"          . J.J.S.S.+ n U U ) ) ) ) ) ) ) ) ) ) U U U U U U U ) ) U U U U ) ) ) ) ) ) ) ) ) +.+.) ) ) . S.J.J..         ",
"        . J.J.S.S.S.+ n ) +.p.+.) ) ) ) ) ) ) ) U U U U U U ) ) ) ) U U ) ) ) ) ) ) ) ) ) ) ) p.) ) ) . S.S.J.J..       ",
"      . J.J.S.S.S.S.. U ) g.p.p.+.+.+.) ) ) ) ) ) U U U U ) ) ) ) ) ) ) ) ) ) ) U U U U ) ) ) ) ) ) ) . S.S.J.J..       ",
"      . J.J.S.S.S.S.. U U p.g.p.p.p.+.) ) ) ) ) ) ) ) ) ) +.+.+.+.p.p.p.+.) ) U U U U U U U U ) ) ) ) . S.S.S.J.J..     ",
"      . I.I.S.S.S.S.. ) ) ) | p.p.p.+.) ) ) ) ) ) +.) ) ) +.j.j.j.z.z.z.p.+.) U o.n n n U U U ) ) ) . . S.S.S.J.J..     ",
"      . I.I.J.S.S.S.. ) ) ) ) ) ) ) ) ) ) ) +.) ) +.) ) +.+.m.n.n.j.C.V.+.U n n n n n U U ) . . . . S.S.S.S.S.J.. .     ",
"      . J.I.J.S.S.S.S.. . . . . . ) ) ) ) ) ) ) ) ) U U n n n n n n n n v d d z U U + . . . S.S.S.S.S.S.S.S.J.J.. .     ",
"        . J.J.S.S.S.S.S.S.S.S.S.S.. . . . + # - < 1 4 8 8 8 q t q t t t 8 > * + . . S.S.S.S.S.S.S.S.S.S.S.S.J.J.. .     ",
"          . J.J.J.S.S.S.S.S.S.S.S.S.S.S.S.S.S.S.S.S.S.S.S.S.S.S.S.S.S.S.S.S.S.S.S.S.S.S.S.S.S.S.S.S.S.S.S.J.I.J..       ",
"          . J.J.J.I.J.J.S.S.S.S.S.S.S.S.S.S.S.S.S.S.S.S.S.S.S.S.S.S.S.S.S.S.S.S.S.S.S.S.S.S.S.S.S.S.S.J.J.I.I.J..       ",
"          . J.J.J.I.I.I.J.J.J.S.S.S.S.S.S.S.S.S.S.S.S.S.S.S.S.S.S.S.S.S.S.S.S.S.S.S.S.S.S.S.S.S.S.J.J.J.J.I.J.J..       ",
"            . . . J.J.I.I.J.J.J.J.J.S.S.S.S.S.S.S.S.J.J.J.J.S.S.S.S.S.S.S.S.S.S.S.S.S.S.S.I.I.I.J.J.J.J.J.J.J..         ",
"                  . J.J.I.I.J.J.J.J.J.J.J.J.J.J.J.J.J.J.J.J.J.J.J.J.J.J.S.S.S.J.J.J.J.J.I.I.J.J.J.J.J.J.J.J..           ",
"                    . J.J.J.J.J.J.I.I.J.J.J.J.J.J.J.J.J.J.I.I.I.I.I.J.J.J.J.J.J.J.J.I.I.J.J.J.J.J.J.. . . .             ",
"                      . J.J.J.J.J.J.I.I.I.I.J.J.J.J.J.J.J.J.J.J.J.J.J.J.J.J.J.J.J.J.J.J.J.. . . . . .                   ",
"                        . . . . . . . . . J.J.J.J.J.J.J.J.J.. J.. J.J.. . . . . . . . . .                               ",
"                                          . . . . . . . . . .   . . . .                                                 ",
"                                                                                                                        ",
"                                                                                                                        ",
"                                                                                                                        "
};
