/* XPM */
static char *_bc4bb0739874f12a3403edbb8662ba4VLBaN9czKCGWZdkg[] = {
/* columns rows colors chars-per-pixel */
"60 60 40 1 ",
"  c None",
". c #502C69",
"X c #732761",
"o c red",
"O c #FF1600",
"+ c #FF3100",
"@ c #FF3A00",
"# c #0FFF00",
"$ c #00FF28",
"% c #00FF31",
"& c #57FF00",
"* c #00FF4C",
"= c #00FF68",
"- c DarkOrange",
"; c #FFA800",
": c #8EFF00",
"> c #A0FF00",
", c #FFD500",
"< c #E0FF00",
"1 c #F2FF00",
"2 c #4A148C",
"3 c #6D3096",
"4 c #4527A0",
"5 c #651FFF",
"6 c #7C4DFF",
"7 c #736FEB",
"8 c #8330BA",
"9 c #9D00FF",
"0 c #AA00FF",
"q c #D500F9",
"w c #BF79E8",
"e c #E040FB",
"r c #00FF9E",
"t c #00FFA8",
"y c #6BB1E4",
"u c #00FFC3",
"i c #00FFCC",
"p c #EB8DD7",
"a c #EA80FC",
"s c #84C4EA",
/* pixels */
"yyyy*yyyyyyyyyyyyyyuyyyyyyyyyyyyyyyyyyyyoyyyyyyyyy*yyyyyyyyy",
"yyyy$yyyyyyyyyyyyyyuyyyyyyyyyyyyyyyyyyyyoyyyyyyyyyryyyyyyyyy",
"yyyy$yyyyyyyyyyyyyyryyyyyyyyyyyyyyyyyyyoyyyyyyyyyyyryyyyyyyy",
"yyy$yyyyyyyyyyyyyyyryyyyyyyyyyyyyyyyyy+yyyyyyyyyyyyyryyyyyyy",
"yy$yyyyyyyyyyyyyyyyryyyyyyyyyyyyyyyyy+yyyyyyyyyyyyyyryyyyyyy",
"yy$yyyyyyyyyyyyyyyyryyyyyyyyyyyyyyyyy+yyyyyyyyyyyyyyyryyr=yy",
"y*yyyyyyyyyyyyyyyyryyyyyyyyyyyyyyyyyy+yyyyyyyyyyyyyyyyrryy= ",
"*yyyyyyyyyyyyyyrrryyyyyyyyyyyyyyyyyyy+yyyyyyyyyyyyyyyyyyyyy=",
"yyyyyyyyyyyyyyuyyyyyyyyyyyyyyyyyyyyyyy@yyyyyyyyyyyyyyyyyyyyy",
"yyyyyyyyyyyyyuyyyyyyyyyyyyyyyyyyyyyyyyy@yyyyyyyyyyyyyyyyyyyy",
"yyyyyyyyyyyyyuyyyyyyyyyyyyyyyyyyyyyyyyy;sssssyyyyyyyyyyyyyyy",
"yyyyyyyyyyyyuyyyyyyyyyyyyyyyyyssssssyyss;sssssyyyyyyyyyyyyyy",
"yyyyyyyyyyyyuyssssyyyyyyyyyssssssssssssss;ssssssyyysssyyyyyy",
"yyyyyyyyyyyyussssssssyyyyyssssssssssssssss;ssssssysssssssyyy",
"sssyyyyyysssusssssssssssssssssssssssssssss;sssssssssssssssss",
"sssssssssssusssssssssssXXXXppssssssssssssss;s,,,,,ssssssssss",
"sssssss>>>usssssssssssXssssssppsssssssssssss;sssss,sssssssss",
"sssss>>ssssssssssssssXsssssssssppsssssswsssssssssss<ssssssss",
"ssss<sssssssssssssssXssssssssssssppppppswwssssssssss<sssssss",
"sss<sssssssssssssssXsssssssssssssssssssssswssssssssss<ssssss",
"<<<sssssssssssssssXsssssssssssssssssssssssswssssssssss<<<<<<",
"sssssssssssssssssXsssssssssssssssssssssssssswsssssssssssssss",
"ssssssssssssssss9sssssssssss444ssssssssssssswsssssssssssssss",
"ssssssssssssss99sssssssssss6sss4ssssssssssssswssssssssssssss",
"ssssssssssssss9sssssssssss6sssss4sssssssssssswssssssssssssss",
"sssssssssssss9ssssssssssss6sssss4ssssssssssss8ssssssssssssss",
"sssssssssssss9sssssssssss6sssssss77ssssssssss8ssssssssssssss",
"sssssssssssss9ssssssssss6ssssssssss7sssssssss8ssssssssssssss",
"sssssssssssss9ssssssssss6ssssssssss7sssssssss8ssssssssssssss",
"sssssssssssss9sssssssssss5sssssssss7ssssssss8sssssssssssssss",
"sssssssssssss9ss9ssssssss5ssssssss7sssssss88ssssssssssssssss",
"ssssssssssssss99s99sssssss5ssssss7sssssss8ssssssssssssssssss",
"sssssssssssssssssss9sssssss5ssss7sssssss8sssssssssssssssssss",
"ssssssssssssssssssss9ssssss5ss55ssssss88ssssssssssssssssssss",
"ssssssssss22sssssssss.ssssss55sssssss3ssssssssssssssssssssss",
"sssssssss2ss2ssssssss.ssssssssssssss3sssssssssssssssssssssss",
"usssssss2sss2sssssssss.ssssssssssss3sssssssssssssssssssssssi",
"sussssss%ssss0ssssssss.ssssssssssss3sssssssssssssssssssssiis",
"ssussss%ssss0ssssssssss.ssssssssss3ssss11111,sssssssrrriisss",
"sstssss%ssss0sssssssssss..ssssssss3sss1ssssss,,sssrrssssssss",
"sstssss%ssss0sssssssssssss....sss3sss1sssssssss,,,ssssssssss",
"sstssss%ssss0sssssssssssssssss..3sss1sssssssssssssssssssssss",
"sssttt%ssssss0ssssqsssssssssssssssss1sssssssssssssssssssssss",
"ssssssssssssss0qqqsqqsssssssssssssss1sssssssssssssssssssssss",
"sssssssssssssssssssssqssssssssssssss1sssssssssssssssssssssss",
"sssssssssssssssssssssqssssssssssssss1sssssssssssssssssssssss",
"yyyyyyysssssssssssssssqsssssssssssss,sssssssssssssssssssyyyy",
"yyyyyyyyssssssssssssssqsssssssssssss,sssssssssssssssssyyyyyy",
"yyyyyyyyyyssssssssssssesyyyyyyyyssss,ssssssssssssssssyyyyyyy",
"yyyyyyyyyyyssyyysssssseyyyyyyyyyyysss,syyyyyssssssssyyyyyyyy",
"yyyyyyyyyyyyyyyyyyysyeyyyyyyyyyyyyyyyy-yyyyyysssssyy::::###y",
"#yyyyyyyyyyyyyyyyyyyyeyyyyyyyyyyyyyyyyy-yyyyyyyyyyy:yyyyyyy#",
"y#yyyyyyyyyyyyyyyyyyyeyyyyyyyyyyyyyyyyyy-yyyyyyyyyy:yyyyyyyy",
"yy&yyyyyyyyyyyyyyyyyeyyyyyyyyyyyyyyyyyyyy-yyyyyyyyy:yyyyyyyy",
"yyy&yyyyyyyyyyyyyyyeyyyyyyyyyyyyyyyyyyyyy-yyyyyyyy:yyyyyyyyy",
"yyy&yyyyyyyyyyyyyyyayyyyyyyyyyyyyyyyyyyyyOyyyyyyy:yyyyyyyyyy",
"yyyy&yyyyyyyyyyyyyyayyyyyyyyyyyyyyyyyyyyyOyyyyyyy:yyyyyyyyyy",
"yyyyy&yyyyyyyyyyyyyayyyyyyyyyyyyyyyyyyyyOyyyyyyyy#yyyyyyyyyy",
"yyyyy&yyyyyyyyyyyyyayyyyyyyyyyyyyyyyyyyyOyyyyyyyy#yyyyyyyyyy",
"yyyy#yyyyyyyyyyyyyyuyyyyyyyyyyyyyyyyyyyyOyyyyyyyyy#yyyyyyyyy"
};
