/* XPM */
static char *_e03fbcba0b444f284ac93392d59eb753FNev025QmtAzZho[] = {
/* columns rows colors chars-per-pixel */
"60 60 8 1 ",
"  c None",
". c black",
"X c #A60303",
"o c #DB0000",
"O c #FF9100",
"+ c #FFEB00",
"@ c yellow",
"# c white",
/* pixels */
"                                                            ",
"                                                            ",
"                                                            ",
"                                                            ",
"                                                            ",
"                                                            ",
"                                                            ",
"                                                            ",
"                                                            ",
"                                                            ",
"                                                            ",
"                                                            ",
"                                                            ",
"                        XXXXXXXXXXXXXXXXXXXX                ",
"                       XooooooooooooooooooXX                ",
"                      Xoo##############ooXoX                ",
"                     Xoo##############ooXooX                ",
"                    XooooooooooooooooooXoooX                ",
"                   XXXXXXXXXXXXXXXXXXXXoo+oX                ",
"                   XooooooooooooooooooXo++oX                ",
"                   XoooOOOOOOOOOOOOoooXo++oX                ",
"                   XooO@@@@@@@@@@@@OooXo++oX                ",
"                   XoO@@##########@@OoXo++oX                ",
"                   XoO@############@OoXo++oX                ",
"                   XoO@############@OoXo++oX                ",
"                   XoO@############@OoXo++oX                ",
"                   XoO@############@OoXo++oX                ",
"                   XoO@##...##...##@OoXo++oX                ",
"                   XoO@############@OoXo++oX                ",
"                   XoO@############@OoXo++oX                ",
"                   XoO@##.######.##@OoXo++oX                ",
"                   XoO@#.########.#@OoXo++oX                ",
"                   XoO@##.##..##.##@OoXo++oX                ",
"                   XoO@###..##..###@OoXo++oX                ",
"                   XoO@############@OoXo++oX                ",
"                   XoO@############@OoXo++oX                ",
"                   XoO@#####..#####@OoXo++oX                ",
"                   XoO@#####..#####@OoXo++oX                ",
"                   XoO@############@OoXo++oX                ",
"                   XoO@############@OoXo++oX                ",
"                   XoO@############@OoXo++oX                ",
"                   XoO@############@OoXo++oX                ",
"                   XoO@############@OoXo++oX                ",
"                   XoO@############@OoXo++oX                ",
"                   XoO@############@OoXo+ooX                ",
"                   XoO@@##########@@OoXoooX                 ",
"                   XooO@@@@@@@@@@@@OooXooX                  ",
"                   XoooOOOOOOOOOOOOoooXoX                   ",
"                   XooooooooooooooooooXX                    ",
"                   XXXXXXXXXXXXXXXXXXXX                     ",
"                                                            ",
"                                                            ",
"                                                            ",
"                                                            ",
"                                                            ",
"                                                            ",
"                                                            ",
"                                                            ",
"                                                            ",
"                                                            "
};
