/* XPM */
static char *_15c4933fe044ee4e3681a9f334b50cbjppyAeFUuzXBzvqL[] = {
/* columns rows colors chars-per-pixel */
"60 60 32 1 ",
"  c None",
". c #2B1600",
"X c #2D1600",
"o c #2D1700",
"O c #2E1700",
"+ c #2F1800",
"@ c #311900",
"# c #341A00",
"$ c #371D00",
"% c #391A00",
"& c #3C1F00",
"* c #401F00",
"= c #422000",
"- c #412200",
"; c #402300",
": c #432300",
"> c #472300",
", c #472500",
"< c #482400",
"1 c #492400",
"2 c #482500",
"3 c #4A2500",
"4 c #4B2805",
"5 c #613300",
"6 c #7D4106",
"7 c #2E4659",
"8 c #435D73",
"9 c #5E788C",
"0 c #99B0BF",
"q c #E5C584",
"w c #FBE68B",
"e c #F5D9A6",
/* pixels */
"                                                            ",
"                                                            ",
"                     ................                       ",
"                   ..666666666666666.....                   ",
"                  ..66666666666666666666..                  ",
"                ..66666666666666666666666..                 ",
"              ..666666666555566666666666666..               ",
"             ..66666666555555555555666666666.               ",
"            ..6666666655555555555555556666666..             ",
"           ..666666665555555555555555555566666..            ",
"           .66666666555555555555555555555566666.            ",
"          ..66666665555555555555555555555556666..           ",
"          .6666666555555555555555555555555556666..          ",
"         .666666655555555444444444445555555556666.          ",
"         .666666655555544444444444444455555556666.          ",
"         .666666555555444444444444444444555555666..         ",
"         .6666665555554444444444444444444555556666.         ",
"        .66666665555544444444444444444444555555666.         ",
"        .6666666555554444444444....444444455555666..        ",
"        .66666655555544444444.......444444555556666.        ",
"        .6666665555554444444........444444555556666.        ",
"        .66666655555544444444......4444444555555666.        ",
"        .66666655555554444444......4444444555555666.        ",
"        .666666655555544444444.....4444444555555666.        ",
"        .6666666555555544444444...44444444555556666.        ",
"        ..66666655555554444444444444444445555556666.        ",
"         .6666666555555444444444444444445555555666..        ",
"         .6666666555555555444444444444445555556666.         ",
"          .666666655555555544444444444555555556666.         ",
"          ..6666666555555555555544555555555556666..         ",
"           .6666666555555555555555555555555566666.          ",
"           ..66666665555555555555555555555566666..          ",
"            .66666666555555555555555555556666666.           ",
"             .666666665555555555555555666666666..           ",
"              .6666666666666666666666666666666..            ",
"             .q..66666666666666666666666666666.             ",
"          ...qqqq..66666666666666666666666666....           ",
"         ..qqq................................qqq..         ",
"       ...qq..88899999999999999999999999988887..qq...       ",
"      .wwqq.778889999999999999999999999998888777..qq..      ",
"     .wwqqo777888909900999999999999090099888877777.qq...    ",
"    .wwqqqo7778889999909999999999999999998888777777.qww.    ",
"   .wwqqqq.7778889999999900999999990999998888777777.qqww.   ",
"   .wwqqqq.7778889990999999990999900999999888777777.qqww.   ",
"   .eeqqqq.777888999999909999099999999909998877777..qqww.   ",
"   .eewqqq.77788999990009999999999999999999887....qqqqww.   ",
"   .wewqqqq......8999999999999990999999999o...qqqqqqqwww.   ",
"    .wwqqqqqqqqqq....o+#%&*:::,2>222:$@o..qqqqqqqqqqqwww.   ",
"     .wwwqqqqqqqqqqqqqqqqqqqqqqqqqqqqqqqqqqqqqqqqqqqwwew.   ",
"     .wwwewwqqqqqqqqqqqqqqqqqqqqqqqqqqqqqqqqqqqqqqqwweew.   ",
"     .wwweeewwwqqqqqqqqqqqqqqqqqqqqqqqqqqqqqqqqqqwwwweww.   ",
"      ...wweewwwwwqqqqqqqqwwwwqqqqqqqqqqqqqqqeeewwwwwww.    ",
"         .wweewwwwwwwwwwwwwwwwwwwwwwqqqwwwwweewwwwwwww.     ",
"          .wwwwwweewwwwwwwwwweeeeewwwwwwwweewwwwww....      ",
"           .wwwwwweeeewwwwwwwwwwwwwwwwwwwwwww......         ",
"            .........wwwwwwwww.w.ww..........               ",
"                     .......... ....                        ",
"                                                            ",
"                                                            ",
"                                                            "
};
