/* XPM */
static char *a74c1a984d414adcb0cb77e4fed509a5cGxisipNkgsu0U32[] = {
/* columns rows colors chars-per-pixel */
"60 60 113 2 ",
"   c None",
".  c black",
"X  c #100E00",
"o  c #101000",
"O  c #191500",
"+  c #191800",
"@  c #A20323",
"#  c #DACC00",
"$  c #E1D400",
"%  c #EAD400",
"&  c #E9DC00",
"*  c #FFDB00",
"=  c #FFDC00",
"-  c #FFDF00",
";  c #EFE600",
":  c #EDEA00",
">  c #EDEC00",
",  c #F1E400",
"<  c #FAE000",
"1  c #FFE500",
"2  c #FFE600",
"3  c #FFE603",
"4  c #F3EE00",
"5  c #F8EB00",
"6  c #FFE800",
"7  c #FFEA00",
"8  c #FFEB00",
"9  c #FBEE00",
"0  c #FCEC00",
"q  c #FFEC00",
"w  c #FFED00",
"e  c #FFEE00",
"r  c #FFEF00",
"t  c #FFEE02",
"y  c #FFE30F",
"u  c #FFEE0F",
"i  c #F3F000",
"p  c #F5F400",
"a  c #F5F500",
"s  c #FAF000",
"d  c #FFF000",
"f  c #FEF100",
"g  c #FFF100",
"h  c #FDF200",
"j  c #FEF200",
"k  c #FFF200",
"l  c #FFF300",
"z  c #FFF301",
"x  c #FFF202",
"c  c #F8F700",
"v  c #FAF700",
"b  c #FFF400",
"n  c #FFF500",
"m  c #FCF600",
"M  c #FEF600",
"N  c #FFF600",
"B  c #FFF700",
"V  c #FAF800",
"C  c #FCF800",
"Z  c #FDF800",
"A  c #FFF800",
"S  c #FEF900",
"D  c #FFF900",
"F  c #FCFB00",
"G  c #FFFA00",
"H  c #FEFB00",
"J  c #FFFB00",
"K  c #FCFC00",
"L  c #FDFC00",
"P  c #FFFC00",
"I  c #FFFD00",
"U  c #FFFE00",
"Y  c yellow",
"T  c #FFE81C",
"R  c #FFE923",
"E  c #FFE02D",
"W  c #FFE237",
"Q  c #FFE23D",
"!  c #099FF3",
"~  c #0B9FF3",
"^  c #0C9FF3",
"/  c #0E9EF3",
"(  c #0C9EF4",
")  c #1B97F3",
"_  c #149BF3",
"`  c #129CF3",
"'  c #05A3F3",
"]  c #06A3F3",
"[  c #01A6F3",
"{  c #02A6F3",
"}  c #04A4F3",
"|  c #04A3F4",
" . c #05A3F4",
".. c #05A2F5",
"X. c #02A5F4",
"o. c #01A7F4",
"O. c #01A7F5",
"+. c #02A6F4",
"@. c #08A1F3",
"#. c #09A1F3",
"$. c #08A1F4",
"%. c #00A8F3",
"&. c #00A9F4",
"*. c #00AAF4",
"=. c #59C7F8",
"-. c #E78484",
";. c #A7E3FB",
":. c #D5D5D5",
">. c #EDC6C6",
",. c #FFCED3",
"<. c #CFEFFD",
"1. c #FFECEE",
"2. c white",
/* pixels */
"                                                                                                                        ",
"                                                                                                                        ",
"                                                                                                                        ",
"                                                                                                                        ",
"                                                                                                                        ",
"                                                                                                                        ",
"                                                                                                                        ",
"                                                                                                                        ",
"                                                                                                                        ",
"                                                                                                                        ",
"                                                                                                                        ",
"                                                                                                                        ",
"                                                                                                                        ",
"                                            . . . . . . . . . . . . . . .                                               ",
"                                        . . Y Y Y Y Y Y Y Y Y Y Y Y Y Y a . .                                           ",
"                                      . Y Y Y Y Y Y Y n l l Y Y Y Y Y n i a Y .                                         ",
"                                    . Y Y Y G Y Y Y Y l 7 l G Y Y Y n l n G Y Y .                                       ",
"                                  . Y Y Y n r l G Y Y n l G G Y Y Y l r l G Y Y Y .                                     ",
"                                . Y Y Y Y l 7 r G Y Y Y Y G G Y Y Y G l n Y Y Y G a .                                   ",
"                              . Y G G Y Y Y l G Y Y Y Y G l r 9 V Y Y Y Y Y Y Y v , $ O                                 ",
"                            . Y n l n G Y Y Y . . . . Y Y l < & > . . . . Y Y Y G r % # +                               ",
"                          . Y Y r 7 r G Y Y . 2.2.2.2.. Y Y s : . 2.2.2.2.. Y Y G l 5 ; v .                             ",
"                          . Y Y G l l Y Y . 2.2.2.2.2.2.. Y Y . 2.2.2.) ) 2.. Y Y Y G Y Y .                             ",
"                        . Y Y Y Y Y Y Y . 2.2.2.2.) ) 2.2.. . 2.2.2._ _ _ ) 2.. Y Y Y Y Y Y .                           ",
"                        . Y G l l G Y . 2.2.2.;.#.+. .#.2.2.. 2.2.2.) ' ^ $.) 2.. Y Y Y Y Y .                           ",
"                        . Y l 7 r G Y . 2.2.2.#.2.*.*.+.+.2.. 2.2.<.^ 2.+. . .2.. Y Y Y Y Y .                           ",
"                        . Y n l l G Y . 2.2.2.#.2.2.. .  .2.. 2.2.) ' 2.. . { =.. n l l G Y .                           ",
"                        . Y Y G Y Y Y . 2.2.2._ %.. . . ( 2.. 2.2._ ' . . . ~ =.. r 7 r G Y .                           ",
"                        . Y Y Y Y Y Y Y . 2.2._ ' . . . ) . . . . ) } . . . ) 2.. G l l G Y .                           ",
"                        . Y Y G G Y Y Y Y . 2._ ' ^ ( ) . . Y Y Y . ) { ~  .) . Y Y Y Y Y Y .                           ",
"                        . Y n r l G Y Y Y Y . ) #.` ( . . Y Y Y Y . ) ) ) ) . Y Y Y Y Y Y Y .                           ",
"                        . Y G - r n Y Y Y Y Y . . . . . Y Y Y Y Y . . . . . Y Y Y Y Y Y Y Y .                           ",
"                        . Y Y n r l l G Y Y Y Y Y Y . Y Y Y Y . . Y Y Y Y Y Y Y Y Y n l n Y .                           ",
"                        . Y Y Y r T R u G Y Y Y Y Y Y Y Y Y . Y Y Y Y Y n l n Y Y Y r r l Y .                           ",
"                        . Y Y Y y 1.Q 1.l Y Y n n Y Y Y Y Y Y Y Y Y Y Y r r l Y Y Y n l n Y .                           ",
"                        . Y Y Y 2 E W . . . . * r G Y Y Y Y n l n Y Y Y ,.l ,.Y Y Y Y G Y Y .                           ",
"                        . Y Y n l 1.. @ @ @ @ . . . . . Y Y r r l Y Y Y Y Y Y Y Y Y Y Y Y Y .                           ",
"                        . Y n l l G . @ @ @ @ @ @ @ 2.2.. . . . . . Y Y Y Y ,.Y Y Y Y Y Y Y .                           ",
"                        . Y G - l G Y . @ @ @ @ @ @ :.2.2.@ 2.2.2.@ . Y G G Y Y n l n G Y Y .                           ",
"                        . Y Y G G Y Y . @ @ @ @ @ @ :.2.2.@ :.2.2.@ @ . r l G Y n 2 r G Y Y .                           ",
"                          . Y Y Y G G Y . @ @ @ @ @ @ :.2.@ :.:.2.@ @ . 7 r G Y Y n n Y Y .                             ",
"                          . Y Y l r l G Y . . @ @ @ @ @ @ @ @ @ @ @ @ . l l Y Y Y Y Y Y Y .                             ",
"                            . Y l 2 r G Y Y . @ @ @ @ @ >.-.-.-.@ @ @ . Y Y G G Y Y Y Y .                               ",
"                              . Y l l Y Y Y Y . . @ @ -.>.>.-.>.>.@ . Y Y l l n G Y Y .                                 ",
"                                . Y Y Y Y Y Y n l . . . . . . . . . Y Y Y l 7 l 4 a .                                   ",
"                                  . Y Y Y Y Y Y Y G n G Y Y Y n l n G Y Y Y l l a .                                     ",
"                                    . Y Y Y Y Y Y n 7 r G Y Y l r l G Y Y Y Y Y .                                       ",
"                                      . Y Y Y Y Y G - 7 n Y Y G l n Y Y Y Y Y .                                         ",
"                                        . . Y Y Y Y G n Y Y Y Y Y Y Y Y Y . .                                           ",
"                                            . . . . . X o . . . . . . . .                                               ",
"                                                                                                                        ",
"                                                                                                                        ",
"                                                                                                                        ",
"                                                                                                                        ",
"                                                                                                                        ",
"                                                                                                                        ",
"                                                                                                                        ",
"                                                                                                                        ",
"                                                                                                                        ",
"                                                                                                                        "
};
