/* XPM */
static char *e216035b7c574771cdbdcd2030520441MkV0mzL9eqoPVlIp[] = {
/* columns rows colors chars-per-pixel */
"60 60 223 2 ",
"   c None",
".  c black",
"X  c #0D171F",
"o  c #191D22",
"O  c #341B23",
"+  c gray14",
"@  c #242526",
"#  c #302C29",
"$  c #322E2A",
"%  c #4B392D",
"&  c #7B5438",
"*  c #B41C1D",
"=  c #B71C1C",
"-  c #B81C1C",
";  c #B91C1C",
":  c #BA1C1C",
">  c #BA1D1D",
",  c #BB1D1D",
"<  c #BC1D1D",
"1  c #BE1E1E",
"2  c #BF1E1E",
"3  c #94241A",
"4  c #9E2022",
"5  c #C11E1E",
"6  c #C01F1F",
"7  c #C41D1D",
"8  c #C61D1D",
"9  c #C71D1D",
"0  c #C51E1E",
"q  c #C41F1F",
"w  c #C71E1E",
"e  c #C71F1F",
"r  c #C91D1D",
"t  c #C91E1E",
"y  c #C81F1F",
"u  c #CA1E1E",
"i  c #CB1E1E",
"p  c #CA1F1F",
"a  c #CB1F1F",
"s  c #CC1E1E",
"d  c #CC1F1F",
"f  c #D01E1E",
"g  c #D61E1E",
"h  c #D61F1F",
"j  c #C52020",
"k  c #C92020",
"l  c #C92121",
"z  c #CA2020",
"x  c #CA2323",
"c  c #CD2020",
"v  c #CF2121",
"b  c #CB2424",
"n  c #CA2525",
"m  c #CF2426",
"M  c #CC2626",
"N  c #D02121",
"B  c #D42020",
"V  c #D72020",
"C  c #D42525",
"Z  c #D62626",
"A  c #D82020",
"S  c #DA2020",
"D  c #DA2121",
"F  c #DA2323",
"G  c #DC2222",
"H  c #DB2425",
"J  c #DC2727",
"K  c #D52F2F",
"L  c #D92828",
"P  c #DC2929",
"I  c #DD3535",
"U  c #D53F3F",
"Y  c #E12020",
"T  c #E02323",
"R  c #E62121",
"E  c #E72323",
"W  c #E22425",
"Q  c #E32525",
"!  c #E82121",
"~  c #E82323",
"^  c #EF2222",
"/  c #E82525",
"(  c #EB2424",
")  c #EB2525",
"_  c #EB2626",
"`  c #ED2424",
"'  c #EC2626",
"]  c #E12828",
"[  c #E22C2C",
"{  c #EB2A2A",
"}  c #EF2C2C",
"|  c #FD2727",
" . c #F02C2C",
".. c #FE2A2A",
"X. c #FA2C2C",
"o. c #EE3939",
"O. c #EB3E3E",
"+. c #F33336",
"@. c #F43B3D",
"#. c #B34428",
"$. c #C05529",
"%. c #C4562C",
"&. c #C4592B",
"*. c #C5592B",
"=. c #C65B2B",
"-. c #C75B2B",
";. c #C7592D",
":. c #C65A2D",
">. c #C95D2C",
",. c #C85D2D",
"<. c #CB5E2D",
"1. c #CA5F2D",
"2. c #CA5D2E",
"3. c #CC5F2E",
"4. c #CD612B",
"5. c #CD612F",
"6. c #CF632E",
"7. c #CF632F",
"8. c #D0632F",
"9. c #D0642F",
"0. c #D16430",
"q. c #D16530",
"w. c #D16630",
"e. c #D36730",
"r. c #D46730",
"t. c #D76A31",
"y. c #AD7044",
"u. c #AD7145",
"i. c #AE7044",
"p. c #AE7144",
"a. c #AE7045",
"s. c #AE7244",
"d. c #AF7245",
"f. c #AF7345",
"g. c #AE7146",
"h. c #AF7246",
"j. c #AF7545",
"k. c #A67349",
"l. c #AA7248",
"z. c #AB7A4E",
"x. c #B07245",
"c. c #B07246",
"v. c #B27346",
"b. c #B07446",
"n. c #B17446",
"m. c #B37748",
"M. c #B47549",
"N. c #B57748",
"B. c #B47649",
"V. c #B47749",
"C. c #B4774A",
"Z. c #B57849",
"A. c #B5784A",
"S. c #B5794A",
"D. c #B6794A",
"F. c #B6784B",
"G. c #B6794B",
"H. c #B7794B",
"J. c #B47A4C",
"K. c #B77A4D",
"L. c #B47C4D",
"P. c #B77E4F",
"I. c #B87B4C",
"U. c #B97B4D",
"Y. c #B87C4C",
"T. c #B97C4C",
"R. c #B97C4D",
"E. c #B97D4D",
"W. c #BA7D4E",
"Q. c #BA7E4E",
"!. c #BA7E4F",
"~. c #BB7E4F",
"^. c #BB7F4F",
"/. c #BC7F4F",
"(. c #F44949",
"). c #F45252",
"_. c #BB804F",
"`. c #BD814F",
"'. c #B88353",
"]. c #BA8252",
"[. c #BC8050",
"{. c #BD8050",
"}. c #BD8150",
"|. c #BE8250",
" X c #BE8251",
".X c #BE8351",
"XX c #BF8353",
"oX c #BF8452",
"OX c #C08350",
"+X c #C08453",
"@X c #C08553",
"#X c #C18653",
"$X c #C28653",
"%X c #C18554",
"&X c #C18754",
"*X c #C28754",
"=X c #C38754",
"-X c #C28755",
";X c #C28854",
":X c #C28855",
">X c #C48A55",
",X c #C48956",
"<X c #C68956",
"1X c #C48A56",
"2X c #C58A57",
"3X c #C68B56",
"4X c #C68B57",
"5X c #C68C57",
"6X c #C68C58",
"7X c #C78C58",
"8X c #EEB24B",
"9X c #EEB44C",
"0X c #EFB44C",
"qX c #EFB74D",
"wX c #F0B84D",
"eX c #F0BC4F",
"rX c #F3C250",
"tX c #F5CB53",
"yX c #00B7EF",
"uX c #FFA3B1",
"iX c #DBB5C3",
"pX c #F1F4F7",
"aX c white",
/* pixels */
"                                                                                                                        ",
"                                                                                                                        ",
"                                                                                                                        ",
"                                                                                                                        ",
"                                                                                                                        ",
"                                                                                                                        ",
"                                                                                                                        ",
"                                                                                                                        ",
"                                                                                                                        ",
"                                                                                                                        ",
"                                                          . . .             . . .                                       ",
"                                                        . aXaXaX.         . aXaXaX.                                     ",
"                                                        . aXyXyX.         . yXyXaX.                                     ",
"                                                        . aXyXyX.         . yXyXaX.                                     ",
"                                                        . aXyXaX.         . aXyXaX.                                     ",
"                                                        . . . . .         . . . . .                                     ",
"                                                        . uXuXuX.         . uXuXuX.                                     ",
"                                                          . . X X X     X X . . .                                       ",
"                                                              X iXpXX X pXiXX                                           ",
"                                                              X iXpXiXpXpXiXX                                           ",
"                                                                X pXiXpXpXX X                                           ",
"                                                                  X pXiXX       ] S x G / / G y                         ",
"                                                                  X pXiXX 4 x S g y 1 q y y q V {                       ",
"                                                            n O.(.o.J x V s 1 ; ; ; * * * * ; q } ).                    ",
"                                                            q Q ` Y s ; ; ; * X X o X X X X * ; v  .I                   ",
"                                                            * 6 s 6 ; * * * X ,X,XOX&X,X7XX * * ; 1 n U                 ",
"                                                          X X eXtXtXX X X o 7XW.W.+X+X,X7X@ X X O m x C P               ",
"                                                        X ,XX wXrXeXX 7X,X`.W.J.W.W.&X,X}.S.7XX   +.H j v m K           ",
"                                                      X 7X}.X rXrXeXX 7XW.+XC.+X_.S.,X,XW.S.}.X   @.Q q y S / C         ",
"                                                      X W.,XX X tXtXX ,XW.,Xs.}.7XW.}.7Xc.S.S.X   [ S q f R / x         ",
"                                                      X W.z.@ X tXrXX :XW.% & S.X X # ].s.s.C.X   q y s g R X.  *       ",
"                                                      X W.k.@ X tXwXX }.&X7X% 7XX ,XL.L.b.s.C.X X   N ! Y V 6 * *       ",
"                                                      X o o X tXeX9XX /.+XW.X X X +XS.S.c.s.C.,XX X   ..! S y           ",
"                                                    X ,X}.}.X tX8X9XX _.}.}.7XX 7Xm.b.s.s.s.S.}.,XX   / ^ `             ",
"                                                    X W./.&XX tX9X9XX 7X&X}.}.X 7Xs.s.j.s.c.S.:X,XX * y | L             ",
"                                                    X I.W.:XX tXtXeXX 7X,X,X,XX 7Xs.s.c.s.C.I.,X5XX   * 6               ",
"                                                    X W.S.}.X rXrXtXX X 7X7X7XX 7Xb.C.W.C.}.W.}.X X                     ",
"                                                    X X X 7XX rXrXtXtXX X 7X7XX 7XW.`.oXJ.l.X X X                       ",
"                                                          X w.w.2.5.w.w.X X X X X X 7X,X].# X                           ",
"                                                            3 w.#.3 5.w.2.w.w.w.w.w.X X X X                             ",
"                                                            3 2.2.3 2.*.2.%.5.w.w.w.3                                   ",
"                                                            3 2.;.3 *.$.*.2.2.w.9.3.3                                   ",
"                                                            3 w.3 3 5.*.;.*.*.w.2.8.3                                   ",
"                                                          3 w.5.3 *.*.*.w.w.w.w.w.t.3                                   ",
"                                                          . 3 3 3 5.5.*.w.w.4.w.r.3                                     ",
"                                                        X aXuXaX3 3 w.w.3 3 3 w.3 3                                     ",
"                                                        X pXX X pXaX3 3 aXX aX3 pXpXX                                   ",
"                                                        X X X   uX  pXuXaXX pXpXuXaXX                                   ",
"                                                            X aXuXpXpXX X X X X X X X                                   ",
"                                                            X X X X X                                                   ",
"                                                                                                                        ",
"                                                                                                                        ",
"                                                                                                                        ",
"                                                                                                                        ",
"                                                                                                                        ",
"                                                                                                                        ",
"                                                                                                                        ",
"                                                                                                                        ",
"                                                                                                                        ",
"                                                                                                                        "
};
