/* XPM */
static char *_514921dd52d44c4fd915d2e12749246IAvBCCYuKWRC66Qt[] = {
/* columns rows colors chars-per-pixel */
"60 60 27 1 ",
"  c None",
". c #182530",
"X c #1F2F3D",
"o c #25372A",
"O c #713700",
"+ c #7C3F07",
"@ c #26384A",
"# c #324B63",
"$ c #395470",
"% c #8B4F15",
"& c #AE7339",
"* c #60940A",
"= c #78A707",
"- c #7BAA06",
"; c #7DAD05",
": c #7EAE06",
"> c #78A508",
", c #FFB900",
"< c #DD9B5A",
"1 c #3973AD",
"2 c #5378A3",
"3 c #53ACCC",
"4 c #6BAEED",
"5 c #74A8E3",
"6 c #74CEDA",
"7 c #FFDBAC",
"8 c #A5E2E6",
/* pixels */
"                 ..........................                 ",
"                .22222222$$$$$$$$@@@@@@@@@@.                ",
"                .22222222$$$$$$$$@@@@@@@@@@.                ",
"                .22222222$$$$$$$$@@@@@@@@@@.                ",
"                .22222222$$$$$$$$@@@@@@@@@@.                ",
"                .22222222$$$$$$$$@@@@@@@@@@.                ",
"               .222222222$$$$$$$$@@@@@@@@@@@.               ",
"               .222222222$$$$$$$$@@@@@@@@@@@.               ",
"               .222222222$$$$$$$$@@@@@@@@@@@.               ",
"               .222222222$$$$$$$$@@@@@@@@@@@.               ",
"              .2222222222$$$$$$$$@@@@@@@@@@@.               ",
"              .2222222222$$$$$$$$@@@@@@@@@@@.               ",
"             ..........................@@@@@.               ",
"            .222222222222$$$$$$$$@@.@@@.@@@@.               ",
"            .222222222222$$$$$$$$@@.@@@.@@@@.               ",
"            .222222222222$$$$$$$$@@.@@@.@@@@.               ",
"            .222222222222$$$$$$$$@@.@@@.@@@@@.              ",
"            .222222222222$$$$$$$$@@.@@@.@@@@@.              ",
"             ..........................@@@@@@.              ",
"              .2255555@.2$$$$.@55555@@@@@@@@@.              ",
"           ....25844615.2$$$$.5844315@@@@@.........         ",
"          .22$.25844615.2$$$$.5844315@@@@.22####.X..        ",
"          .22$.25844615.2$$$$.5844315@@@@.22####.XXX.       ",
"          .22$.25844615.2$$$$.5844315@@@@.22####.XXX.       ",
"          .22$.25844615.2$$$$.5844315@@@@.22####.XXX.       ",
"          .22$.25844615.2$$$$.5844315@@@@.22####.XXX.       ",
"          .22$.2255555@.2$$$$$.55555@@@@@.22####.XXX.       ",
"          .22$.2222222@.2$$$$$.X.@@@@@@@@.22####.XXX.       ",
"          .22$.2222222@.2$$$$$.X.@@@@@@@@.22####.XXX.       ",
"          .22$.222222@.22$$$$$$.X.@@@@@@@.22####.XXX.       ",
"          .22$.222222@.22$$$$$$.X.@@@@@@@.22####.XXX.       ",
"          .22$.222222@.22$$$$$$.X.@@@@@@@.22####.XXX.       ",
"          .22$.222222@.22$$$$$$.X.@@@@@@@.22####.XXX.       ",
"          .22$.222222@.22$$$$$$.X.@@@@@@@.22####.XXX.       ",
"          .22$.222222@.22$$$$$$.X.@@@@@@@.22####.XXX.       ",
"          .22$.222222@.22$$$$$$.X.@@@@@@@.22####.XXX.       ",
"          .22$.22222@.222$$$$$$$.X.@@@@@@.22####.XXX.       ",
"          .22$.22222@.222$$$$$$$.X.@@@@@@.22####.XXX.       ",
"          .22$.22222@.222$$$$$$$.X.@@@@@@.22####.XXX.       ",
"        ...22$.22222@.222$$$$$$$.X.@@@@@@.22####.XXX.       ",
"       .>*.22$.22222@.222$$$$$$$.X.@@@@@@.22####.XXX..      ",
"       .>*.22$.22222@.222$$$$$$$.X.@@@@@@.22####.XXX.>.     ",
"      .>=*.22$.22222@@............@@@@@@@.22####.XXX.>.     ",
"      .>>**....2222222222$$$$$$$$@@@@@@@@...........*>.     ",
"     .>>:>****.2222222222$$$$$$$$@@@@@@@@@@@@.******>>>.    ",
"     .>::::***.2222222222$$$$$$$$@@@@@@@@@@@@.***>>>:>-.    ",
"     .>:::::**.2222222222$$$$$$$$@@@@@@@@@@@@.***:>:::>-.   ",
"     .>:::::**.2222222222$$$$$$$$@@@@@@@@@@@@.*>:::::::-.   ",
"     .->::::**.2222222222$.....$$@@@@@@@@@@@@.*>::::::>.    ",
"      .>-:::**.2222222222..%%...$@@@@@@@@@@@@.*>:::::-=.    ",
"       .->:>**.222222222...&%..+..@@@@@@@@@@@.*->::::>-.    ",
"        .>>>**.22222222.<..%%..++.@@@@@@@@@@@.*>>>::::-.    ",
"        .>>>**.22222222.<..%&..O+.@@@@@@@@@@@.*>>>:::>.     ",
"         ...**.22222222.&..%%,,+O.@@@@@@@@@@@.*>>->:>o      ",
"            ...22222222.<..%%,,++.@@@@@@@@@@@..>>>...       ",
"            .7.22222222.<..&%..+O.@@@@@@@@@@@.7...          ",
"           .77.22222222.&..%%..++.@@@@@@@@@@@.77.           ",
"           .777.........<..%&..O+............77.            ",
"            ..777777777777777777777777777777777.            ",
"              .................................             "
};
